<?xml version="1.0" encoding="utf-8"?>
<!-- Generator: Adobe Illustrator 19.0.0, SVG Export Plug-In . SVG Version: 6.00 Build 0)  -->
<svg version="1.1" id="Layer_1" xmlns="http://www.w3.org/2000/svg" xmlns:xlink="http://www.w3.org/1999/xlink" x="0px" y="0px"
	 viewBox="0 0 800 800" style="enable-background:new 0 0 800 800;" xml:space="preserve">
<style type="text/css">
	.st0{fill-rule:evenodd;clip-rule:evenodd;fill:#43EFCE;}
	.st1{fill-rule:evenodd;clip-rule:evenodd;fill:#05CEB6;}
	.st2{fill-rule:evenodd;clip-rule:evenodd;fill:#327DA7;}
	.st3{fill-rule:evenodd;clip-rule:evenodd;fill:#2DAEBE;}
	.st4{fill-rule:evenodd;clip-rule:evenodd;fill:#A6F7D4;}
	.st5{fill-rule:evenodd;clip-rule:evenodd;fill:#2A5D8B;}
	.st6{fill:#FDFDFE;}
	.st7{fill:#FFFFFF;}
	.st8{font-family:'CenturyGothic-Bold';}
	.st9{font-size:140.121px;}
	.st10{fill:#05CEB6;}
	.st11{font-family:'CenturyGothic';}
	.st12{font-family:'Calibri';}
	.st13{font-size:30.101px;}
	.st14{letter-spacing:7.3;}
	.st15{font-family:'MyriadPro-Regular';}
	.st16{font-size:309.1632px;}
</style>
<polygon id="XMLID_35_" class="st0" points="385.9,17.6 346.7,62.6 368.3,113.1 404.4,163.6 353.9,228.5 296.2,206.9 281.7,170.8 
	252.9,214.1 276.7,343.1 245.7,372.8 202.7,333.1 195.4,268.9 151.9,358.4 166.3,452.2 221.6,518.9 339.4,574.8 491,558.1 
	606.4,502.7 649.7,416.1 644.3,346.2 599.8,405.4 577.7,358.4 613.6,264.6 599.2,221.3 550.8,198 563.1,264.6 491,300.7 
	440.4,271.8 491,163.6 498.2,120.3 433.2,98.7 393.1,86.7 "/>
<polygon id="XMLID_34_" class="st1" points="202.7,333.1 151.9,358.4 166.3,452.2 "/>
<polygon id="XMLID_33_" class="st1" points="245.7,372.8 202.7,333.1 166.3,452.2 "/>
<polygon id="XMLID_32_" class="st2" points="221.6,518.9 245.7,372.8 166.3,452.2 "/>
<polygon id="XMLID_31_" class="st3" points="339.4,575 245.7,373 221.6,519 "/>
<polygon id="XMLID_30_" class="st1" points="404.4,163.6 440.4,271.8 353.9,228.5 "/>
<polygon id="XMLID_29_" class="st1" points="296.2,206.9 252.9,214.1 281.7,170.8 "/>
<polygon id="XMLID_27_" class="st0" points="276.7,343.1 296.2,206.9 252.9,214.1 "/>
<polygon id="XMLID_25_" class="st0" points="649.7,416.1 599.8,405.4 644.3,346.2 "/>
<polygon id="XMLID_23_" class="st2" points="606.4,502.7 599.8,405.4 649.7,416.1 "/>
<polygon id="XMLID_21_" class="st4" points="491,300.7 577.7,358.4 563.1,264.6 "/>
<polygon id="XMLID_19_" class="st5" points="245.7,372.8 491,558.1 339.4,574.8 "/>
<polygon id="XMLID_18_" class="st4" points="440.4,271.8 245.7,372.8 276.7,343.1 296.2,206.9 "/>
<polygon id="XMLID_16_" class="st0" points="440.4,271.8 491,558.1 577.7,358.4 "/>
<polygon id="XMLID_15_" class="st1" points="404.4,163.6 385.9,17.6 346.7,62.6 "/>
<polygon id="XMLID_14_" class="st0" points="599.2,221.3 577.7,358.4 550.8,198 "/>
<polygon id="XMLID_13_" class="st3" points="245.7,372.7 491,558.1 440.4,271.7 "/>
<polygon id="XMLID_11_" class="st3" points="606.4,502.8 491,558.3 577.7,358.6 599.8,405.5 "/>
<path id="XMLID_48_" class="st6" d="M321.4,420c5.7,0,11.2,0.9,16.4,2.6l15.5-34.1h0.3l-4.2-10.9h-12.8v-10.1h47.8v10.1h-24
	l4.2,10.9H458l-4.7-14.4c-0.6-1.8-1.8-4-2.4-4.5c-1.3-0.6-6.1-1.2-10.2-1.2h-14.1v-10.1h14.1c2.5,0,11.1,0.2,15.4,2.6
	c4.4,2.4,6.6,8.5,7.2,10.3l16.2,49.8c3.1-0.6,6.3-0.9,9.6-0.9c28.6,0,51.9,22.6,51.9,50.4c0,27.8-23.3,50.4-51.9,50.4
	c-28.6,0-51.9-22.6-51.9-50.4c0-21.1,13.4-39.2,32.4-46.7l-4.7-14.5l-64.5,71h-27.9c-4.7,23.1-25.8,40.6-50.9,40.6
	c-28.6,0-51.9-22.6-51.9-50.4C269.5,442.6,292.8,420,321.4,420z M447.4,470.4c0,22.2,18.6,40.3,41.5,40.3
	c22.9,0,41.5-18.1,41.5-40.3c0-22.2-18.6-40.3-41.5-40.3c-2.2,0-4.3,0.2-6.4,0.5l13.8,42.4l-9.9,3l-13.8-42.6
	C457.8,439.6,447.4,453.8,447.4,470.4z M347.3,426.7c15.5,8.7,25.9,24.9,26,43.4H385l-26.4-68.4L347.3,426.7z M343.1,436l-15.5,34.1
	h35.4C362.8,455.7,354.9,443.1,343.1,436z M460.5,398.6h-92l27.4,71.1L460.5,398.6z M321.4,510.7c19.4,0,35.8-13,40.3-30.5h-38.1
	c-1.9,0-5.4-0.4-7.2-3.2c-1.6-2.6-0.8-5.6,0.2-7.7l17-37.4c-3.9-1.2-8-1.8-12.2-1.8c-22.9,0-41.5,18.1-41.5,40.3
	C279.9,492.6,298.5,510.7,321.4,510.7z"/>
<g id="XMLID_4_">
</g>
<text id="XMLID_28_" transform="matrix(0.9363 0 0 1 76.2668 706.2048)" class="st7 st8 st9">b</text>
<text id="XMLID_26_" transform="matrix(0.9363 0 0 1 156.5939 706.2048)" class="st7 st8 st9">a</text>
<text id="XMLID_24_" transform="matrix(0.9363 0 0 1 240.9904 706.2048)" class="st7 st8 st9">r</text>
<text id="XMLID_22_" transform="matrix(0.9363 0 0 1 277.7267 706.2048)" class="st10 st11 st9">c</text>
<text id="XMLID_20_" transform="matrix(0.9363 0 0 1 351.6301 706.2048)" class="st10 st11 st9">a</text>
<text id="XMLID_17_" transform="matrix(0.9363 0 0 1 432.968 706.2048)" class="st10 st11 st9">m</text>
<text id="XMLID_3_" transform="matrix(0.9363 0 0 1 547.5441 706.2048)" class="st10 st11 st9">p</text>
<text id="XMLID_2_" transform="matrix(1.235 0 0 1 177.2707 737.2048)" class="st7 st12 st13 st14">BANGKHEN 2016</text>
<text id="XMLID_1_" transform="matrix(1 0 0 1 589.3029 782.3981)" class="st7 st15 st16">7</text>
</svg>
