<?xml version="1.0" encoding="utf-8"?>
<!-- Generator: Adobe Illustrator 19.2.1, SVG Export Plug-In . SVG Version: 6.00 Build 0)  -->
<svg version="1.1" xmlns="http://www.w3.org/2000/svg" xmlns:xlink="http://www.w3.org/1999/xlink" x="0px" y="0px"
	 viewBox="0 0 1500 900" style="enable-background:new 0 0 1500 900;" xml:space="preserve">
<style type="text/css">
	.st0{fill-rule:evenodd;clip-rule:evenodd;fill:#43EFCE;}
	.st1{fill-rule:evenodd;clip-rule:evenodd;fill:#05CEB6;}
	.st2{fill-rule:evenodd;clip-rule:evenodd;fill:#327DA7;}
	.st3{fill-rule:evenodd;clip-rule:evenodd;fill:#2DAEBE;}
	.st4{fill-rule:evenodd;clip-rule:evenodd;fill:#A6F7D4;}
	.st5{fill-rule:evenodd;clip-rule:evenodd;fill:#2A5D8B;}
	.st6{fill:#FDFDFE;}
	.st7{fill:#070707;}
	.st8{font-family:'CenturyGothic-Bold';}
	.st9{font-size:148.9609px;}
	.st10{fill:#43EFCE;}
	.st11{font-family:'CenturyGothic';}
	.st12{font-family:'Calibri';}
	.st13{font-size:32px;}
	.st14{display:none;fill:none;stroke:#231F20;stroke-width:2;stroke-miterlimit:10;}
	.st15{fill:#FFFFFF;}
	.st16{font-family:'MyriadPro-Regular';}
	.st17{font-size:278.9901px;}
</style>
<g id="polygon_fire">
	<polygon class="st0" points="369.8,46.5 328.3,94.5 351.5,148.1 390,201.7 336.6,270.9 275.1,248.1 259.7,209.8 229.1,255.9 
		255,392.9 222.1,424.7 176.2,382.6 168.3,314.4 122.3,409.7 138,509.3 197,580 322.5,639.1 483.5,620.8 606,561.4 651.7,469.2 
		645.8,394.9 598.7,457.9 575,408.2 612.8,308.3 597.3,262.3 545.9,237.7 559.1,308.5 482.6,347.1 428.8,316.6 482.1,201.3 
		489.6,155.3 420.5,132.5 377.8,119.9 	"/>
	<polygon class="st1" points="176.2,382.6 122.3,409.7 138,509.3 	"/>
	<polygon class="st1" points="222.1,424.7 176.2,382.6 138,509.3 	"/>
	<polygon class="st2" points="197,580 222.1,424.7 138,509.3 	"/>
	<polygon class="st3" points="322.5,639.2 222.1,424.8 197,580.2 	"/>
	<polygon class="st1" points="390,201.7 428.8,316.6 336.6,270.9 	"/>
	<polygon class="st1" points="275.1,248.1 229.1,255.9 259.7,209.8 	"/>
	<polygon class="st0" points="255,392.9 275.1,248.1 229.1,255.9 	"/>
	<polygon class="st0" points="651.7,469.2 598.7,457.9 645.8,394.9 	"/>
	<polygon class="st2" points="606,561.4 598.7,457.9 651.7,469.2 	"/>
	<polygon class="st4" points="482.6,347.1 575,408.2 559.1,308.5 	"/>
	<polygon class="st5" points="222.1,424.7 483.5,620.8 322.5,639.1 	"/>
	<polygon class="st4" points="428.8,316.6 222.1,424.7 255,392.9 275.1,248.1 	"/>
	<polygon class="st0" points="428.8,316.6 483.5,620.8 575,408.2 	"/>
	<polygon class="st1" points="390,201.7 369.8,46.5 328.3,94.5 	"/>
	<polygon class="st0" points="597.3,262.3 575,408.2 545.9,237.7 	"/>
	<polygon class="st3" points="222.1,424.6 483.5,620.7 428.8,316.5 	"/>
	<polygon class="st3" points="606,561.6 483.5,620.9 575,408.3 598.7,458.1 	"/>
</g>
<g id="text">
	<path class="st6" d="M298,474.6c6.1,0,12,0.9,17.4,2.7l16.3-36.3l0.3,0l-4.5-11.5l-13.6,0l0-10.7l50.8-0.2l0,10.7l-25.5,0.1
		l4.5,11.5l99.2-0.3l-5-15.3c-0.6-1.9-1.9-4.3-2.6-4.8c-1.3-0.7-6.5-1.3-10.9-1.3l-15,0.1l0-10.7l15-0.1c2.7,0,11.8,0.2,16.4,2.7
		c4.7,2.6,7.1,9,7.7,10.9l17.4,52.9c3.3-0.6,6.7-0.9,10.2-0.9c30.4-0.1,55.3,23.8,55.4,53.4c0.1,29.5-24.6,53.6-55,53.7
		c-30.4,0.1-55.3-23.8-55.4-53.4c-0.1-22.4,14.1-41.7,34.3-49.7l-5.1-15.4L382,538.3l-29.7,0.1c-4.9,24.6-27.2,43.2-54,43.3
		c-30.4,0.1-55.3-23.8-55.4-53.4C242.9,498.8,267.6,474.7,298,474.6z M432.1,527.7c0.1,23.6,19.9,42.8,44.3,42.7
		c24.3-0.1,44.1-19.4,44-43c-0.1-23.6-20-42.8-44.3-42.7c-2.3,0-4.6,0.2-6.8,0.5l14.8,45l-10.5,3.3l-14.9-45.3
		C443,494.8,432.1,510,432.1,527.7z M325.5,481.6c16.5,9.2,27.7,26.3,27.8,46l12.4,0l-28.3-72.7L325.5,481.6z M321.1,491.5
		l-16.3,36.3l37.6-0.1C342.2,512.4,333.7,498.9,321.1,491.5z M445.8,451.3l-97.8,0.3l29.4,75.5L445.8,451.3z M298.3,571
		c20.6-0.1,38-13.9,42.7-32.6l-40.5,0.1c-2.1,0-5.8-0.4-7.7-3.4c-1.7-2.7-0.9-5.9,0.2-8.2l17.9-39.8c-4.1-1.2-8.5-1.9-13-1.8
		c-24.3,0.1-44.1,19.4-44,43C254.1,551.9,274,571,298.3,571z"/>
	<g>
	</g>
	<text id="XMLID_28_" transform="matrix(0.9363 -3.220768e-003 3.440000e-003 1 82.1163 738.9524)" class="st7 st8 st9">b</text>
	<text id="XMLID_26_" transform="matrix(0.9363 -3.220768e-003 3.440000e-003 1 167.5104 738.6586)" class="st8 st9">a</text>
	<text id="XMLID_24_" transform="matrix(0.9363 -3.220768e-003 3.440000e-003 1 257.2307 738.35)" class="st8 st9">r</text>
	<text id="XMLID_22_" transform="matrix(0.9363 -3.220768e-003 3.440000e-003 1 296.2845 738.2156)" class="st10 st11 st9">c</text>
	<text id="XMLID_20_" transform="matrix(0.9363 -3.220768e-003 3.440000e-003 1 374.8482 737.9454)" class="st10 st11 st9">a</text>
	<text id="XMLID_17_" transform="matrix(0.9363 -3.220768e-003 3.440000e-003 1 461.3175 737.6479)" class="st10 st11 st9">m</text>
	<text id="XMLID_3_" transform="matrix(0.9363 -3.220768e-003 3.440000e-003 1 583.121 737.2289)" class="st10 st11 st9">p</text>
	<text transform="matrix(1.235 0 0 1 189 774)" class="st12 st13">B A N G K H E N    2 0 1 6</text>
	<line class="st14" x1="432.6" y1="799.7" x2="994.1" y2="799.7"/>
</g>
<g id="_x37_">
	<text transform="matrix(0.9948 0 0 1 621 801)" class="st15 st16 st17">7</text>
</g>
</svg>
